
        <svg xmlns="http://www.w3.org/2000/svg" xmlns:xlink="http://www.w3.org/1999/xlink" version="1.1" width="2307.1621312515645" 
        height="3178.8754810985592" viewBox="0 0 2307.1621312515645 3178.8754810985592">
			
			<g transform="scale(8.94377405492794) translate(10, 10)">
				<defs id="SvgjsDefs1220"><linearGradient id="SvgjsLinearGradient1227"><stop id="SvgjsStop1228" stop-color="#8f5e25" offset="0"></stop><stop id="SvgjsStop1229" stop-color="#fbf4a1" offset="0.5"></stop><stop id="SvgjsStop1230" stop-color="#8f5e25" offset="1"></stop></linearGradient><linearGradient id="SvgjsLinearGradient1231"><stop id="SvgjsStop1232" stop-color="#8f5e25" offset="0"></stop><stop id="SvgjsStop1233" stop-color="#fbf4a1" offset="0.5"></stop><stop id="SvgjsStop1234" stop-color="#8f5e25" offset="1"></stop></linearGradient><linearGradient id="SvgjsLinearGradient1235"><stop id="SvgjsStop1236" stop-color="#8f5e25" offset="0"></stop><stop id="SvgjsStop1237" stop-color="#fbf4a1" offset="0.5"></stop><stop id="SvgjsStop1238" stop-color="#8f5e25" offset="1"></stop></linearGradient></defs><g id="SvgjsG1221" featureKey="symbolFeature-0" transform="matrix(0.8420226638259178,0,0,0.8420226638259178,67,0)" fill="url(#SvgjsLinearGradient1227)"><g xmlns="http://www.w3.org/2000/svg"><path fill="none" d="M62.5,9C33,9,9,33,9,62.5c0,16.82,7.875,32.54,21.2,42.643c1.879,0.448,3.339,2.2,3.46,4.229l3.78,63.461   h12.727V92.249c-10-4.827-17.084-15.139-17.084-27.083s7.084-22.255,17.084-27.083v29.749h26V38.335   c10,4.925,16.583,15.087,16.583,26.831s-6.583,21.906-16.583,26.831v80.835h11.414l3.762-63.46c0.12-2.022,1.562-3.707,3.436-4.159   C108.102,95.113,116,79.319,116,62.535C116,33.035,92,9,62.5,9z"></path><path d="M125,62.5C125,28.038,96.963,0,62.5,0C28.038,0,0,28.038,0,62.5c0,19.68,9.223,38.073,24.831,49.87l3.845,64.398   c0.079,1.32,0.731,2.668,1.687,3.436c0.809,0.869,1.954,1.629,3.235,1.629h58.006c0.618,0,1.206-0.336,1.741-0.566   c1.646-0.588,2.872-2.206,2.982-4.062l3.846-64.787C115.765,100.622,125,82.129,125,62.5z M94.778,105.144   c-1.874,0.452-3.315,2.206-3.436,4.229l-3.762,63.46H76.167V91.998c10-4.925,16.583-15.087,16.583-26.831   s-6.583-21.906-16.583-26.831v29.498h-26V38.084c-10,4.827-17.084,15.139-17.084,27.083s7.084,22.255,17.084,27.083v80.584H37.44   l-3.78-63.461c-0.121-2.029-1.581-3.711-3.46-4.159C16.875,95.11,9,79.354,9,62.535c0-29.5,24-53.518,53.5-53.518   S116,33.009,116,62.509C116,79.293,108.102,95.043,94.778,105.144z"></path><path d="M91.604,186.833H33.598c-2.447,0-4.431,2.053-4.431,4.5s1.983,4.5,4.431,4.5h58.006c2.447,0,4.431-2.053,4.431-4.5   S94.051,186.833,91.604,186.833z"></path><path d="M88.771,199.833H36.765c-2.447,0-4.431,2.053-4.431,4.5s1.983,4.5,4.431,4.5h52.006c2.447,0,4.431-2.053,4.431-4.5   S91.218,199.833,88.771,199.833z"></path><path d="M87.104,213.833H38.431c-2.447,0-4.431,2.053-4.431,4.5s1.983,4.5,4.431,4.5h48.673c2.447,0,4.431-2.053,4.431-4.5   S89.551,213.833,87.104,213.833z"></path></g></g><g id="SvgjsG1222" featureKey="nameFeature-0" transform="matrix(2.8328881254177865,0,0,2.8328881254177865,-8.094405284152487,175.6260206911575)" fill="url(#SvgjsLinearGradient1231)"><path d="M27.143 17.714 l-16.857 0 l0 4.8571 l14.571 0 l0 6.2857 l-14.571 0 l0 4.8571 l16.857 0 l0 6.2857 l-20 0 l-4.2857 -4.2857 l0 -24.286 l24.286 0 l0 6.2857 z M48.57185714285714 17.714 l-9.1429 0 l0 16 l9.1429 0 l2.2857 -2.2857 l5.4286 0 l0 4.2857 l-4.2857 4.2857 l-15.714 0 l-4.2857 -4.2857 l0 -20 l4.2857 -4.2857 l15.714 0 l4.2857 4.2857 l0 4.2857 l-5.4286 0 z M79.14271428571428 17.714 l-10.571 0 l0 4.8571 l14 0 l4.2857 4.2857 l0 8.8571 l-4.2857 4.2857 l-17.143 0 l-4.2857 -4.2857 l0 -4.2857 l5.4286 0 l2.2857 2.2857 l10.571 0 l0 -4.8571 l-14 0 l-4.2857 -4.2857 l0 -8.8571 l4.2857 -4.2857 l17.143 0 l4.2857 4.2857 l0 4.2857 l-5.4286 0 z"></path></g><g id="SvgjsG1223" featureKey="sloganFeature-0" transform="matrix(1.1810201062070398,0,0,1.1810201062070398,37.49639395143938,300.8632104357257)" fill="url(#SvgjsLinearGradient1235)"><path d="M14.15 2.655999999999999 q0 0.087890625 -0.2734375 0.1171875 l0 0.039063 l0.078125 0.11719 l0 0.039063 q-0.15625 0.13671875 -0.46875 0.234375 l0.039063 0.078125 l0 0.039063 q-0.46875 0.126953125 -0.46875 0.2734375 q-0.458984375 0.05859375 -0.46875 0.1953125 l-0.039063 0 l-0.078125 -0.039063 q-0.009765625 0.107421875 -0.78125 0.2734375 q0 0.0390625 -0.2734375 0.1171875 l0 -0.039063 q-1.083984375 0.2734375 -2.3828125 0.7421875 q-0.15625 0 -2.03125 0.78125 q-0.615234375 0.224609375 -0.78125 0.390625 q0.546875 0.283203125 0.546875 0.78125 l0 0.039063 q0 0.41015625 -0.5859375 1.171875 q-0.263671875 0.458984375 -0.703125 0.9375 q-0.771484375 1.123046875 -1.1328125 1.7578125 q-0.380859375 0.5078125 -0.78125 1.2109375 q0.0390625 0 0.0390625 0.0390625 q1.6796875 -0.52734375 2.5 -1.09375 q0.46875 -0.33203125 0.625 -0.7421875 q0.078125 -0.0390625 0.1171875 -0.0390625 q0.05859375 0.15625 0.1171875 0.15625 l-0.039063 0.19531 l0 0.039063 l0.078125 0 l0 0.19531 l0.039063 0 q-0.0390625 0.1171875 -0.078125 0.1171875 l0.039063 0.078125 l0 0.039063 q-0.13671875 0.8984375 -0.3125 0.8984375 q0 0.13671875 -0.46875 0.46875 q0 0.166015625 -1.71875 0.78125 q-0.009765625 0.068359375 -0.7421875 0.3515625 q-0.185546875 0.078125 -0.390625 0.078125 l0 -0.039063 l-0.078125 0.039063 q-0.126953125 0 -0.3125 -0.1171875 l-0.039063 0 l-0.078125 0.039063 l0 -0.078125 q-0.0390625 0 -0.46875 0.859375 q-0.7421875 1.455078125 -1.171875 3.0859375 q-0.078125 0.3515625 -0.078125 0.5078125 l0 0.66406 l0.078125 0 q0.576171875 -0.185546875 2.2265625 -2.03125 q0 -0.09765625 0.234375 -0.2734375 q0 0.0390625 0.0390625 0.0390625 q0 -0.0390625 0.0390625 -0.0390625 l-0.039063 0.15625 l0.039063 0.19531 q-0.0390625 0.078125 -0.0390625 0.1171875 l0.039063 0 q0 0.0390625 -0.15625 0.234375 q0 0.0390625 0.0390625 0.0390625 q-0.0390625 0.234375 -0.078125 0.234375 l0.039063 0.078125 q-0.2734375 0.52734375 -0.2734375 0.5859375 q0.0390625 0.078125 0.0390625 0.1171875 q-0.1953125 0.419921875 -1.25 1.5234375 q-0.46875 0.5859375 -0.8984375 0.5859375 l-0.19531 0 l-0.078125 -0.039063 q0 0.0390625 -0.0390625 0.0390625 q-0.380859375 -0.224609375 -0.625 -0.46875 q-0.4296875 -0.556640625 -0.703125 -2.3046875 q0.1171875 -1.38671875 0.4296875 -2.3046875 q0.1953125 -0.546875 0.8984375 -2.1484375 q0.1171875 -0.166015625 0.625 -1.25 q0.224609375 -0.263671875 0.390625 -0.78125 q0.09765625 0 0.1953125 -0.3515625 q0.244140625 -0.205078125 0.4296875 -0.7421875 q0.9765625 -1.650390625 2.03125 -3.046875 q0.15625 -0.078125 0.15625 -0.234375 q-0.185546875 -0.01953125 -0.546875 -0.5859375 l-0.039063 0 q0 0.0390625 -0.0390625 0.0390625 q0 -0.15625 -0.1953125 -0.15625 l0 -0.078125 q0.068359375 -0.15625 0.3125 -0.3125 l0.078125 0.039063 q0.1953125 -0.126953125 0.1953125 -0.234375 l0.078125 0.039063 q0.390625 -0.2734375 1.25 -0.625 q0 -0.126953125 0.5078125 -0.234375 l0 0.039063 q0.33203125 -0.1953125 0.8203125 -0.3515625 q0 0.0390625 0.0390625 0.0390625 q0 -0.068359375 0.546875 -0.1953125 l0 -0.039063 l0.078125 0.039063 q0.33203125 -0.1953125 0.7421875 -0.1953125 q0.341796875 -0.1953125 0.7421875 -0.1953125 q0 -0.1171875 0.2734375 -0.1171875 q0 0.0390625 0.0390625 0.0390625 q0 -0.107421875 2.1484375 -0.4296875 l0.70313 -0.078125 l0 0.039063 q0.3125 -0.0390625 0.3125 -0.078125 q0.0390625 0 0.0390625 0.0390625 q0.29296875 -0.078125 0.3515625 -0.078125 l0 0.039063 l0.39063 -0.078125 l0 0.039063 q0.0390625 -0.0390625 0.5859375 -0.078125 z M0.98633 12.851600000000001 l-0.078125 0.19531 l0 0.039063 l0.039063 0 q0 -0.068359375 0.078125 -0.234375 l-0.039063 0 z M0.75195 13.3594 l0 0.039063 l0.039063 0 q0.0390625 -0.13671875 0.0390625 -0.15625 q-0.078125 0 -0.078125 0.1171875 z M15.712900000000001 11.0645 l0.15625 0 q0.078125 0.087890625 0.625 0.3125 q0 0.068359375 0.3125 0.3125 q0.3125 0.25390625 0.3125 0.4296875 l0 0.19531 q0 0.56640625 -1.5234375 2.6953125 q-1.220703125 1.650390625 -2.7734375 4.2578125 q-0.3515625 0.751953125 -0.3515625 1.25 q0.009765625 0.09765625 0.1953125 0.15625 q0.048828125 0 0.546875 -0.15625 q0 0.0390625 0.0390625 0.0390625 l0.039063 -0.078125 l0.078125 0.039063 l1.1328 -0.50781 l0 -0.039063 l0.039063 0 q0.0390625 0 0.0390625 0.0390625 l0.82031 -0.39063 q0.234375 -0.05859375 0.234375 -0.15625 l0.078125 0.039063 q0.2734375 -0.224609375 0.9375 -0.46875 q0 -0.048828125 0.0390625 -0.1171875 l0.078125 0.039063 q0.8203125 -0.546875 0.8984375 -0.546875 q0 -0.05859375 0.546875 -0.3125 q0.009765625 -0.078125 0.078125 -0.078125 l0.039063 0 l0 0.078125 l0.039063 0 l0 -0.11719 l0.078125 0 l0 0.078125 l0.078125 -0.039063 l0 0.078125 q-0.05859375 0 -0.15625 0.15625 l0.039063 0.078125 l0 0.039063 q-0.1171875 0 -0.1953125 0.3515625 q0.0390625 0 0.0390625 0.0390625 q-0.146484375 0 -0.4296875 0.46875 l-0.039063 0 l0.039063 0.078125 q-0.068359375 0.126953125 -0.7421875 0.625 q0 0.0390625 0.0390625 0.0390625 q-0.107421875 0.224609375 -0.8203125 0.5859375 q-0.166015625 0.17578125 -1.484375 0.859375 l0 -0.039063 q-0.41015625 0.283203125 -1.09375 0.46875 q-0.546875 0.048828125 -0.546875 0.1171875 q-0.7421875 -0.078125 -1.2109375 -0.3125 q-0.654296875 -0.517578125 -0.8984375 -1.640625 q-0.078125 -0.380859375 -0.078125 -0.5859375 q0.05859375 -0.3515625 0.1171875 -0.3515625 l-0.039063 -0.078125 l0 -0.039063 q0.44921875 -1.171875 0.8984375 -1.6796875 q0.791015625 -1.38671875 1.484375 -2.3046875 l1.1328 -1.7578 l0 -0.039063 l-0.039063 0 q-1.142578125 0.56640625 -2.6953125 1.9921875 q-1.38671875 1.376953125 -2.5390625 2.8125 q-0.810546875 0.9375 -0.9375 0.9375 l-0.039063 0 l0 -0.039063 q-0.0390625 0 -0.0390625 0.0390625 l-0.19531 -0.039063 l-0.039063 0 l-0.078125 0.039063 l0 -0.078125 l-0.078125 0 l-0.078125 0.039063 q-0.537109375 -0.48828125 -0.5859375 -0.7421875 l-0.039063 0 q0 -0.0390625 0.0390625 -0.0390625 l-0.039063 -0.39063 q0 -0.439453125 0.390625 -1.484375 q0.146484375 -0.146484375 0.5078125 -0.859375 q0.966796875 -1.630859375 1.328125 -2.1484375 q0.46875 -0.673828125 0.46875 -0.8203125 l0.078125 0 l0.078125 0.039063 q0.009765625 -0.078125 0.078125 -0.078125 q0.146484375 0.048828125 0.3515625 0.1953125 l0.11719 0 q0.546875 0.33203125 0.546875 0.9765625 q0.1953125 -0.1171875 0.3125 -0.1171875 l-0.039063 -0.078125 q0.205078125 -0.0390625 0.5078125 -0.390625 q0.390625 -0.166015625 0.390625 -0.3125 l0.078125 0.039063 q0.869140625 -0.673828125 2.34375 -1.328125 q0.56640625 -0.2734375 0.9765625 -0.2734375 z M23.710959375 9.375 q0.166015625 0 0.3125 0.078125 q0 -0.0390625 0.0390625 -0.0390625 q0 0.068359375 0.1953125 0.1171875 l0 -0.039063 l0.58594 0.15625 q0.13671875 0.15625 0.2734375 0.15625 q0.15625 0.439453125 0.15625 0.546875 l0 0.039063 q0 0.498046875 -0.78125 1.953125 l-0.078125 -0.039063 q-0.712890625 1.2890625 -1.3671875 2.1484375 q-1.162109375 1.2890625 -1.640625 1.2890625 q-0.0390625 0 -0.46875 -0.1171875 l-0.11719 0 q0 -0.09765625 -0.3515625 -0.3125 l-0.23438 -0.35156 l0 -0.078125 l0.15625 0.039063 q0.615234375 0 1.171875 -0.703125 q0.4296875 -0.29296875 0.9765625 -0.9765625 l0.039063 0 l-0.039063 -0.078125 q0.56640625 -0.703125 1.09375 -1.8359375 l0.078125 0 l-0.039063 0.078125 l0.039063 0 l0.11719 -0.19531 l-0.039063 0 q0 0.078125 -0.078125 0.078125 l0 -0.078125 q0.3515625 -0.634765625 0.3515625 -0.7421875 q-0.576171875 0.09765625 -1.640625 1.2109375 q-0.703125 0.60546875 -0.703125 0.859375 q-1.42578125 1.708984375 -2.265625 3.75 q-0.2734375 0.83984375 -0.2734375 1.4453125 q0.1171875 0.9375 0.6640625 0.9375 q0 0.0390625 0.0390625 0.0390625 l0.3125 0 l0.078125 -0.039063 l0 0.039063 q0.60546875 0 2.109375 -1.484375 q0.48828125 -0.46875 0.703125 -0.46875 l0.039063 0 q0 0.078125 0.1953125 0.1953125 l0.039063 0.078125 q-0.078125 0.009765625 -0.078125 0.078125 q0.009765625 0.078125 0.078125 0.078125 q0 -0.0390625 0.0390625 -0.0390625 l0.039063 0.27344 l0 0.078125 l-0.078125 0.11719 l0.039063 0 q-0.0390625 0.048828125 -0.0390625 0.234375 l0.039063 0 q-0.078125 0.15625 -0.1171875 0.15625 l0.039063 0.078125 q-0.498046875 0.927734375 -0.703125 1.1328125 q-0.869140625 0.7421875 -1.40625 0.7421875 q0 0.0390625 -0.2734375 0.0390625 l-0.39063 0 q-0.0390625 0 -0.0390625 -0.0390625 q-0.0390625 0 -0.0390625 0.0390625 q-0.6640625 -0.087890625 -1.5234375 -0.6640625 q-0.46875 -0.380859375 -0.859375 -0.9375 q-0.4296875 -0.927734375 -0.4296875 -1.25 l0 -0.46875 q0.068359375 -0.947265625 0.78125 -2.1484375 q0.29296875 -0.673828125 1.6015625 -2.3828125 q1.396484375 -1.5625 2.0703125 -1.9921875 q0.46875 -0.302734375 0.46875 -0.390625 l0.078125 0.039063 q0 -0.15625 0.6640625 -0.4296875 l0.39063 0 z M26.767625 11.5625 q0.224609375 0.1171875 0.3125 0.1171875 l0.11719 0 q0 0.087890625 0.2734375 0.1953125 q0.33203125 0.361328125 0.390625 0.78125 l0 0.3125 q-0.1171875 0.380859375 -0.1171875 0.4296875 l0.039063 0 q2.0703125 -1.6015625 3.8671875 -1.6015625 q0.986328125 0 1.7578125 0.7421875 q0 0.087890625 0.0390625 0.15625 q-0.13671875 0.0390625 -0.15625 0.0390625 l0.039063 0.078125 l-0.039063 0 l0.039063 0.078125 q0 0.078125 -0.3125 0.1171875 q-0.1953125 -0.0390625 -0.1953125 -0.078125 l-0.078125 0.039063 q-0.37109375 -0.078125 -0.5859375 -0.078125 q-0.0390625 0 -0.0390625 0.0390625 q-0.0390625 0 -0.0390625 -0.0390625 q-1.19140625 0 -3.1640625 1.40625 q-1.58203125 1.4453125 -1.8359375 2.0703125 q-0.15625 0.0390625 -0.625 0.9765625 q-0.1953125 0.87890625 -0.390625 1.171875 q-0.341796875 1.0546875 -0.546875 1.0546875 q0 0.29296875 -0.703125 0.4296875 q0 -0.087890625 -0.3125 -0.1953125 l0 -0.039063 q0.0390625 0 0.0390625 -0.0390625 q-0.166015625 0 -0.3515625 -0.9765625 q-0.068359375 0 -0.078125 -0.1953125 l0 -0.078125 l0.078125 0.039063 q1.03515625 -1.708984375 1.09375 -2.265625 q0.0390625 0 0.1171875 -0.3125 l-0.039063 0 q0.1171875 -0.1953125 0.1171875 -0.3125 l-0.039063 -0.078125 l0.078125 -0.039063 q0 0.0390625 0.0390625 0.0390625 q0 -0.25390625 0.546875 -1.9921875 q0.1953125 -0.625 0.5078125 -1.4453125 q0.09765625 -0.5078125 0.15625 -0.546875 z M39.88279375 12.626999999999999 q0.029296875 0.15625 0.3125 0.15625 l0 -0.039063 l0.58594 0.39063 q0.283203125 0.224609375 0.390625 0.7421875 q0 0.41015625 -1.09375 2.5 q-1.640625 3.759765625 -3.0078125 6.7578125 q-0.888671875 1.748046875 -1.484375 2.6953125 q-0.107421875 0 -1.171875 1.484375 q-0.05859375 0 -0.703125 0.78125 q-0.107421875 0 -0.390625 0.3125 q-1.015625 0.859375 -1.5234375 0.859375 q-0.8984375 -0.15625 -0.8984375 -0.3515625 q-0.166015625 0 -0.546875 -0.7421875 q-0.13671875 -0.048828125 -0.234375 -0.3515625 q0.05859375 0 0.1171875 -0.1171875 q0 -0.087890625 -0.0390625 -0.15625 l0.078125 -0.66406 l0.039063 0 l0 0.11719 l0.039063 0 q0.126953125 -0.95703125 0.2734375 -1.2109375 q0 -0.0390625 -0.0390625 -0.0390625 q0.078125 -0.322265625 0.2734375 -0.6640625 l-0.039063 0 q0 0.0390625 -0.0390625 0.0390625 l0 -0.039063 q0.5078125 -1.298828125 1.25 -2.03125 q0.3125 -0.263671875 0.3125 -0.3125 l-0.039063 0 q0 0.078125 -0.078125 0.078125 l0 -0.11719 q0.078125 0 0.234375 -0.15625 l0.11719 0 l0 -0.039063 l0.039063 0 l0 0.078125 l0.039063 0 q0 -0.13671875 0.0390625 -0.1953125 l-0.039063 0 q0 0.05859375 -0.1171875 0.1171875 l0 -0.039063 q0 -0.05859375 0.2734375 -0.234375 l0.078125 0.039063 q0.146484375 -0.1171875 0.1953125 -0.1171875 l0 -0.078125 l-0.11719 0 l0.039063 -0.078125 l0.19531 0.078125 q0.5078125 -0.33203125 0.5078125 -0.390625 q0.009765625 -0.107421875 0.1953125 -0.15625 l0 0.078125 l0.23438 -0.11719 l0.078125 0.039063 q0 -0.0390625 0.0390625 -0.1171875 l-0.039063 0 q-0.126953125 0.078125 -0.1953125 0.078125 q0.1171875 -0.09765625 0.1171875 -0.15625 l0.078125 0.039063 q0.009765625 -0.078125 0.078125 -0.078125 l0.039063 0 l0 0.078125 l0.27344 -0.039063 l0.11719 0 q-0.15625 0.17578125 -0.15625 0.3515625 l0.15625 0.039063 l0 0.039063 q-0.3515625 0.1171875 -0.3515625 0.3515625 q-0.3125 0.107421875 -0.5859375 0.5078125 q-0.09765625 0 -0.1171875 0.15625 l-0.078125 -0.039063 q-0.0390625 0.078125 -0.0390625 0.1171875 l-0.078125 -0.039063 q0 0.224609375 -0.3125 0.3515625 q-1.3671875 1.337890625 -1.5234375 2.0703125 q0 0.048828125 -0.1953125 0.625 l0.039063 0.078125 l-0.15625 0.9375 q0.0390625 0.068359375 0.0390625 0.15625 l0 0.11719 q0 0.0390625 -0.0390625 0.0390625 l0.039063 0.078125 q0 0.0390625 -0.0390625 0.0390625 q0.029296875 0.5078125 0.1171875 0.5078125 q1.416015625 -1.25 1.796875 -1.875 q0 -0.078125 0.15625 -0.078125 q0 -0.0390625 -0.0390625 -0.0390625 q0.3515625 -0.46875 1.328125 -2.0703125 l0 0.078125 l0.039063 0 q0.0390625 -0.13671875 0.0390625 -0.15625 l-0.039063 0 q1.328125 -2.5 3.28125 -7.109375 q-0.224609375 0.1953125 -0.2734375 0.1953125 l0 0.039063 l0.039063 0.078125 q-1.474609375 1.34765625 -2.6171875 1.875 q-0.60546875 0.3515625 -1.09375 0.3515625 q-0.2734375 0 -0.546875 -0.078125 q0 0.0390625 -0.0390625 0.0390625 q0 -0.068359375 -0.5859375 -0.3125 q-0.8203125 -0.7421875 -0.8203125 -1.25 l0.039063 -0.078125 q-0.1171875 -0.33203125 -0.1171875 -0.46875 l0 -0.11719 q0 -0.361328125 0.3125 -0.6640625 q0.283203125 -0.556640625 1.6015625 -1.9140625 q0.068359375 0 0.390625 -0.390625 q0.986328125 -0.78125 1.0546875 -0.78125 l-0.039063 -0.078125 l0 -0.039063 l0.27344 -0.039063 q0.0390625 0 0.0390625 0.0390625 l0.078125 -0.039063 q0.1171875 0.0390625 0.3125 0.0390625 l0 -0.039063 l0.039063 0 q0.05859375 0.078125 0.703125 0.1953125 q0 -0.0390625 0.0390625 -0.0390625 q0 0.05859375 0.46875 0.2734375 q0.390625 0.56640625 0.390625 0.9375 q-0.0390625 0 -0.0390625 0.0390625 l0.039063 0 q0 -0.0390625 0.0390625 -0.0390625 l0 0.039063 l-0.078125 0.11719 q0.107421875 0 1.2109375 -1.0546875 q0.869140625 -0.64453125 0.9375 -0.7421875 q0.0390625 0 0.1171875 -0.0390625 z M34.02339375 14.2676 l0 0.078125 q0.05859375 0 0.2734375 -0.2734375 q-0.234375 0.1953125 -0.2734375 0.1953125 z M33.35937375 17.627 q0.673828125 -0.13671875 1.3671875 -0.546875 q0 0.0390625 0.0390625 0.0390625 q0.703125 -0.4296875 0.9375 -1.2109375 q0.234375 -0.654296875 0.390625 -1.2109375 l-0.078125 0 q-0.17578125 0.107421875 -0.859375 0.6640625 q-1.26953125 1.30859375 -1.796875 2.265625 z M33.28125375 15.0488 l-0.078125 0.11719 l0.039063 0 q0.078125 -0.09765625 0.078125 -0.1171875 l-0.039063 0 z M32.81249975 15.5957 q0 0.01953125 -0.078125 0.1171875 l0.039063 0 l0.078125 -0.11719 l-0.039063 0 z M33.32031375 21.5332 l0.039063 0 l0 0.23438 l-0.039063 0 l0 -0.23438 z M33.55468375 21.7285 l0.039063 0 q-0.078125 0.15625 -0.234375 0.15625 q0 -0.05859375 0.1953125 -0.15625 z M33.32031375 21.8848 l0 0.078125 q-0.13671875 0.0390625 -0.15625 0.0390625 l0 -0.078125 q0.087890625 0 0.15625 -0.0390625 z M32.85156275 22.1191 l0.039063 0 q0.078125 0.009765625 0.078125 0.078125 l-0.039063 0 q-0.078125 0 -0.078125 -0.078125 z M32.18750375 22.7832 l0 0.078125 q-0.0390625 0 -0.1171875 0.0390625 l0 -0.078125 q0.0390625 0 0.1171875 -0.0390625 z M31.83589375 23.0957 l0.039063 0 q-0.0390625 0.126953125 -0.15625 0.15625 l0 -0.039063 q0 -0.05859375 0.1171875 -0.1171875 z M30.42969375 26.0254 l0.039063 0 l0 0.11719 q-0.0390625 0.068359375 -0.0390625 0.15625 l-0.039063 0 l0 -0.11719 q0.0390625 -0.068359375 0.0390625 -0.15625 z M30.11719375 27.1582 q0.078125 0.009765625 0.078125 0.078125 l0 0.039063 q-0.078125 0 -0.078125 -0.078125 l0 -0.039063 z M49.414090625 11.9531 l0 0.039063 l0.078125 -0.039063 l0.11719 0 q1.015625 0.625 1.015625 1.0546875 l-0.039063 0 q0 0.0390625 0.0390625 0.0390625 q0 0.634765625 -1.4453125 2.5 q0 0.087890625 -0.4296875 0.625 l-0.50781 0.74219 l0 0.039063 l0.039063 0.078125 q-0.205078125 0 -0.703125 0.859375 q-0.17578125 0.17578125 -1.09375 1.484375 l0.039063 0.078125 q-0.17578125 0 -0.6640625 0.78125 q-0.068359375 0 -0.2734375 0.2734375 l-0.85938 1.0938 q-0.185546875 0.263671875 -0.703125 0.8203125 q-0.41015625 0.615234375 -1.9921875 2.3828125 q-0.2734375 0.263671875 -0.2734375 0.390625 l-0.078125 -0.039063 q-0.15625 0.107421875 -0.234375 0.2734375 q0.0390625 0 0.0390625 0.0390625 q-0.146484375 0 -0.46875 0.46875 q-0.107421875 0 -0.234375 0.234375 q-2.48046875 2.744140625 -3.1640625 2.9296875 l-0.078125 0.078125 q-0.048828125 -0.0390625 -0.2734375 -0.0390625 l0.039063 -0.078125 q-0.146484375 0 -0.234375 -0.078125 q0 0.0390625 -0.0390625 0.0390625 l-0.039063 -0.23438 q0.0390625 0 0.0390625 -0.0390625 l-0.078125 -0.039063 q0 0.0390625 -0.0390625 0.0390625 q-0.087890625 -0.322265625 -0.2734375 -0.6640625 l0.078125 0 l0 -0.11719 l-0.039063 -0.078125 q0.1171875 0 0.1171875 -0.078125 l-0.039063 -0.078125 q0.1171875 -0.224609375 0.1953125 -0.5078125 l0.078125 0.039063 l0.078125 -0.15625 l-0.039063 0 q-0.0390625 0.078125 -0.0390625 0.1171875 l-0.039063 0 l0 -0.078125 q0.087890625 -0.234375 0.15625 -0.234375 l0 0.078125 l0.19531 -0.19531 q0 0.1171875 0.15625 0.1171875 l0 0.078125 q-0.087890625 0.107421875 -0.1171875 0.390625 l0.078125 0 l0 -0.078125 l0.039063 0 l0 0.078125 l0.078125 0 q0.185546875 -0.048828125 0.625 -0.546875 q0.1171875 0 0.1171875 -0.15625 l0.078125 0.039063 q0 -0.15625 0.4296875 -0.5078125 q0 -0.05859375 0.625 -0.703125 l2.4609 -2.9297 l0.039063 -0.078125 l-0.11719 0 q0.1171875 -0.09765625 0.1171875 -0.15625 q0.0390625 0 0.0390625 0.0390625 q0.4296875 -0.3125 1.2890625 -1.5234375 q0.21484375 -0.322265625 0.625 -0.7421875 q0.09765625 -0.2734375 0.234375 -0.2734375 l0 -0.039063 l-0.078125 0 q0.46875 -0.6640625 0.5078125 -0.6640625 l-0.039063 -0.078125 l0 -0.039063 l0.078125 0.039063 q0 -0.048828125 0.1171875 -0.1171875 l-0.039063 -0.078125 q0.009765625 -0.078125 0.078125 -0.078125 q0 0.0390625 0.0390625 0.0390625 l0 -0.039063 l-0.039063 -0.078125 l0.078125 -0.039063 q0 0.0390625 0.0390625 0.0390625 l0.078125 -0.11719 l-0.039063 -0.078125 l0.078125 -0.039063 q0 0.0390625 0.0390625 0.0390625 q0.0390625 -0.1171875 0.078125 -0.1171875 l-0.039063 -0.078125 l0 -0.039063 l0.078125 0.039063 q0 -0.0390625 0.0390625 -0.0390625 l-0.039063 -0.078125 q0.009765625 -0.078125 0.078125 -0.078125 q0 0.0390625 0.0390625 0.0390625 q0.0390625 -0.05859375 0.0390625 -0.1953125 l0.039063 0 l0 0.078125 l0.039063 0 q0 -0.078125 0.0390625 -0.078125 l-0.039063 -0.078125 q0.078125 -0.17578125 0.15625 -0.1953125 q0 0.0390625 0.0390625 0.0390625 l0.039063 -0.078125 q-0.0390625 0 -0.0390625 -0.0390625 l0.078125 -0.039063 q0 0.0390625 0.0390625 0.0390625 q0 -0.078125 0.2734375 -0.4296875 l-0.039063 -0.078125 q0.078125 0 0.078125 -0.1171875 l0.078125 0.039063 q0.068359375 -0.2734375 0.2734375 -0.46875 q0 0.0390625 0.0390625 0.0390625 l0 -0.039063 l-0.039063 0 q0.0390625 -0.068359375 0.0390625 -0.1171875 l0.078125 0.039063 q0 -0.048828125 0.1171875 -0.234375 q0 -0.087890625 0.5859375 -0.8984375 l0 -0.039063 q-0.810546875 0.6640625 -0.9765625 0.7421875 q0 0.05859375 -0.3125 0.234375 q-1.162109375 0.859375 -1.796875 1.1328125 l0 -0.039063 q-0.224609375 0.1953125 -0.6640625 0.2734375 q0 0.126953125 -0.7421875 0.1953125 q-0.498046875 -0.1171875 -0.859375 -0.6640625 q-0.1953125 -0.712890625 -0.1953125 -1.0546875 l0 -0.3125 q0.05859375 -0.498046875 0.8984375 -1.5625 q0.7421875 -0.791015625 0.7421875 -0.859375 l0 -0.039063 l0.078125 0 q0 0.1171875 0.1171875 0.1171875 l0.078125 -0.039063 q0.859375 0.283203125 0.859375 0.9765625 q-0.107421875 0.322265625 -0.546875 0.8203125 q-0.7421875 0.9765625 -0.7421875 1.0546875 q0.126953125 -0.078125 0.1953125 -0.078125 l0 0.039063 q0.7421875 -0.244140625 0.7421875 -0.390625 l0.078125 0.039063 l1.7578 -1.25 l0.078125 0.039063 q0 -0.17578125 0.9375 -0.78125 q1.81640625 -1.533203125 2.5 -1.953125 z M37.226590625 26.7969 l0 0.039063 q0 0.078125 -0.078125 0.078125 l0 -0.039063 q0.009765625 -0.078125 0.078125 -0.078125 z M59.06255 11.1328 l0.078125 0.039063 l0.19531 0 q0.0390625 0 0.0390625 -0.0390625 q0.263671875 0.1171875 0.4296875 0.1171875 q0.0390625 0 0.0390625 -0.0390625 l0.15625 0.078125 q0.078125 -0.0390625 0.1171875 -0.0390625 q1.015625 0.546875 1.015625 1.015625 q0.1171875 0.3125 0.15625 0.3125 q0 0.078125 0.390625 0.078125 l0.3125 0 l0.19531 0.039063 l0 -0.039063 l0.3125 0.078125 q0 -0.0390625 0.0390625 -0.0390625 l0 0.039063 l0.078125 -0.039063 l0.11719 0 l0.078125 0.039063 q0 -0.0390625 0.0390625 -0.0390625 q0 0.0390625 0.0390625 0.0390625 l0 -0.039063 q0.107421875 0.029296875 0.46875 0.078125 l0 -0.039063 q2.12890625 0.21484375 2.34375 0.5078125 q-0.05859375 0 -0.1171875 0.078125 l-0.11719 0 q0 0.068359375 -0.3515625 0.15625 l0 0.039063 q-0.078125 -0.0390625 -0.1171875 -0.0390625 l-0.15625 0.078125 q0 -0.0390625 -0.0390625 -0.0390625 l0 0.039063 q0.078125 0.009765625 0.078125 0.078125 q-0.390625 -0.0390625 -0.5859375 -0.0390625 l-1.2109 0 l-0.27344 0.039063 l0 -0.039063 l-0.078125 0.039063 l-0.625 0 q-0.0390625 0 -0.0390625 -0.0390625 q-0.0390625 0 -0.0390625 0.0390625 l-0.39063 -0.039063 l-0.19531 0 q0 0.1171875 -0.0390625 0.2734375 q0.0390625 0 0.0390625 0.0390625 l-0.039063 0 l0.039063 0.078125 l0 0.039063 q0 0.0390625 -0.0390625 0.0390625 q0.0390625 0.234375 0.078125 0.234375 l-0.039063 0.078125 l0 0.27344 q0 0.0390625 0.0390625 0.0390625 l-0.039063 0.078125 l0 0.42969 q0 0.0390625 -0.0390625 0.0390625 q0.0390625 0.078125 0.0390625 0.1171875 l-0.039063 0.078125 l0.039063 0.078125 q-0.0390625 0.068359375 -0.0390625 0.15625 l0 0.039063 l0.11719 0 q-0.1171875 1.19140625 -0.46875 1.9921875 q-0.810546875 1.66015625 -1.7578125 2.0703125 q-0.498046875 0.234375 -0.9375 0.234375 l-0.42969 0 q-0.654296875 -0.05859375 -1.2890625 -0.46875 q-0.56640625 -0.537109375 -0.78125 -1.25 q-0.1171875 -0.302734375 -0.1171875 -0.546875 l0 -0.078125 q0 -1.279296875 1.2890625 -3.5546875 q0.48828125 -0.849609375 1.015625 -1.4453125 q0 -0.048828125 0.1953125 -0.234375 q0 -0.01953125 0.234375 -0.2734375 q0 -0.1953125 -0.078125 -0.1953125 q0 -0.625 0.5078125 -0.78125 q0.15625 0 0.15625 -0.0390625 z M57.5 17.1094 l0.039063 0 q-0.078125 0.126953125 -0.078125 0.1953125 q0.0390625 0 0.0390625 0.0390625 q-0.09765625 0 -0.1953125 1.1328125 q0.078125 0.3515625 0.1171875 0.3515625 q0.72265625 0 1.2890625 -0.78125 q0.185546875 -0.2734375 0.234375 -0.2734375 l-0.039063 -0.078125 q0.107421875 -0.234375 0.15625 -0.234375 q0 0.0390625 0.0390625 0.0390625 l0.078125 -0.15625 q-0.0390625 -0.078125 -0.0390625 -0.1171875 l0.078125 0.039063 q0.3125 -0.60546875 0.3125 -0.9375 q0.029296875 -0.1953125 0.1171875 -0.1953125 l0 -0.23438 q0.15625 0 0.3125 -2.1484375 q-0.0390625 -0.068359375 -0.0390625 -0.15625 l0.039063 -0.078125 q0 -0.107421875 -0.3515625 -0.234375 l-0.078125 0.039063 q-0.09765625 -0.078125 -0.1171875 -0.078125 l-0.039063 0 q-0.15625 0.126953125 -0.8984375 1.6796875 q-0.673828125 1.23046875 -0.9765625 2.1875 z M61.48435 15.4687 l0.039063 0 l0 0.19531 l-0.039063 0 l0 -0.19531 z M59.14065 17.3047 l0 0.039063 q-0.0390625 0.078125 -0.0390625 0.1171875 l-0.039063 0 l0 -0.11719 z M71.63086875 11.0645 l0.15625 0 q0.078125 0.087890625 0.625 0.3125 q0 0.068359375 0.3125 0.3125 q0.3125 0.25390625 0.3125 0.4296875 l0 0.19531 q0 0.56640625 -1.5234375 2.6953125 q-1.220703125 1.650390625 -2.7734375 4.2578125 q-0.3515625 0.751953125 -0.3515625 1.25 q0.009765625 0.09765625 0.1953125 0.15625 q0.048828125 0 0.546875 -0.15625 q0 0.0390625 0.0390625 0.0390625 l0.039063 -0.078125 l0.078125 0.039063 l1.1328 -0.50781 l0 -0.039063 l0.039063 0 q0.0390625 0 0.0390625 0.0390625 l0.82031 -0.39063 q0.234375 -0.05859375 0.234375 -0.15625 l0.078125 0.039063 q0.2734375 -0.224609375 0.9375 -0.46875 q0 -0.048828125 0.0390625 -0.1171875 l0.078125 0.039063 q0.8203125 -0.546875 0.8984375 -0.546875 q0 -0.05859375 0.546875 -0.3125 q0.009765625 -0.078125 0.078125 -0.078125 l0.039063 0 l0 0.078125 l0.039063 0 l0 -0.11719 l0.078125 0 l0 0.078125 l0.078125 -0.039063 l0 0.078125 q-0.05859375 0 -0.15625 0.15625 l0.039063 0.078125 l0 0.039063 q-0.1171875 0 -0.1953125 0.3515625 q0.0390625 0 0.0390625 0.0390625 q-0.146484375 0 -0.4296875 0.46875 l-0.039063 0 l0.039063 0.078125 q-0.068359375 0.126953125 -0.7421875 0.625 q0 0.0390625 0.0390625 0.0390625 q-0.107421875 0.224609375 -0.8203125 0.5859375 q-0.166015625 0.17578125 -1.484375 0.859375 l0 -0.039063 q-0.41015625 0.283203125 -1.09375 0.46875 q-0.546875 0.048828125 -0.546875 0.1171875 q-0.7421875 -0.078125 -1.2109375 -0.3125 q-0.654296875 -0.517578125 -0.8984375 -1.640625 q-0.078125 -0.380859375 -0.078125 -0.5859375 q0.05859375 -0.3515625 0.1171875 -0.3515625 l-0.039063 -0.078125 l0 -0.039063 q0.44921875 -1.171875 0.8984375 -1.6796875 q0.791015625 -1.38671875 1.484375 -2.3046875 l1.1328 -1.7578 l0 -0.039063 l-0.039063 0 q-1.142578125 0.56640625 -2.6953125 1.9921875 q-1.38671875 1.376953125 -2.5390625 2.8125 q-0.810546875 0.9375 -0.9375 0.9375 l-0.039063 0 l0 -0.039063 q-0.0390625 0 -0.0390625 0.0390625 l-0.19531 -0.039063 l-0.039063 0 l-0.078125 0.039063 l0 -0.078125 l-0.078125 0 l-0.078125 0.039063 q-0.537109375 -0.48828125 -0.5859375 -0.7421875 l-0.039063 0 q0 -0.0390625 0.0390625 -0.0390625 l-0.039063 -0.39063 q0 -0.439453125 0.390625 -1.484375 q0.146484375 -0.146484375 0.5078125 -0.859375 q0.966796875 -1.630859375 1.328125 -2.1484375 q0.46875 -0.673828125 0.46875 -0.8203125 l0.078125 0 l0.078125 0.039063 q0.009765625 -0.078125 0.078125 -0.078125 q0.146484375 0.048828125 0.3515625 0.1953125 l0.11719 0 q0.546875 0.33203125 0.546875 0.9765625 q0.1953125 -0.1171875 0.3125 -0.1171875 l-0.039063 -0.078125 q0.205078125 -0.0390625 0.5078125 -0.390625 q0.390625 -0.166015625 0.390625 -0.3125 l0.078125 0.039063 q0.869140625 -0.673828125 2.34375 -1.328125 q0.56640625 -0.2734375 0.9765625 -0.2734375 z M80.72265875 18.75 q0.4296875 -0.263671875 0.4296875 -0.33203125 l0.039063 0 q0.009765625 0.029296875 0.048828125 0.029296875 q0 -0.078125 0.25390625 -0.185546875 q-0.0390625 -0.05859375 -0.05859375 -0.1171875 l0.087891 0.029297 q0.0390625 -0.15625 0.205078125 -0.21484375 l0.0097656 0.068359 l0.039063 0 l-0.0097656 -0.078125 q-0.0390625 0 -0.0390625 -0.029296875 l0.10742 -0.097656 q0.01953125 0.068359375 0.078125 0.068359375 q0 -0.078125 0.107421875 -0.087890625 l-0.058594 -0.19531 q0.05859375 0 0.1171875 0.029296875 q0 -0.087890625 0.087890625 -0.244140625 q0 -0.0390625 0.0390625 -0.048828125 q0.078125 0 0.087890625 0.068359375 q-0.09765625 0.009765625 -0.17578125 0.21484375 l0.039063 0 q0.380859375 -0.478515625 0.44921875 -0.48828125 l0 -0.078125 l-0.078125 0.0097656 l0.0097656 0.078125 q-0.068359375 0 -0.09765625 -0.107421875 q0.17578125 -0.029296875 0.17578125 -0.17578125 q0.078125 0 0.087890625 0.05859375 q-0.068359375 0.029296875 -0.068359375 0.087890625 l0.17578 -0.13672 l-0.048828 -0.068359 q0.009765625 -0.087890625 0.068359375 -0.087890625 l-0.048828 -0.078125 l0 -0.039063 l0.15625 -0.019531 l0.0097656 0.078125 q0.05859375 -0.009765625 0.13671875 -0.17578125 l-0.039063 0.0097656 q0 0.078125 -0.068359375 0.078125 q-0.0390625 0 -0.0390625 -0.029296875 q0 -0.1953125 0.087890625 -0.205078125 q0 0.05859375 -0.029296875 0.1171875 l0.039063 0 q0 -0.078125 0.068359375 -0.087890625 l0.0097656 0.078125 l0.21484 -0.22461 q0 0.0390625 0.0390625 0.0390625 q0 -0.185546875 0.185546875 -0.380859375 q0 -0.0390625 -0.0390625 -0.0390625 l-0.0097656 -0.11719 q0 -0.15625 0.087890625 -0.166015625 l-0.048828 -0.43945 q0 -0.01953125 0.029296875 -0.029296875 q0 -0.029296875 -0.0390625 -0.029296875 q0.01953125 -0.8203125 0.146484375 -1.357421875 l-0.048828 -0.078125 q0.107421875 -0.205078125 0.107421875 -0.400390625 q0.068359375 -0.009765625 0.068359375 -0.0390625 q-0.048828125 -0.146484375 -0.048828125 -0.166015625 q0.048828125 -0.1171875 0.048828125 -0.244140625 q-0.0390625 0 -0.048828125 -0.029296875 q0.0390625 -0.009765625 0.0390625 -0.048828125 q-0.0390625 0.009765625 -0.390625 0.37109375 q-0.009765625 -0.0390625 -0.048828125 -0.0390625 q0 0.078125 -0.400390625 0.56640625 q-1.9921875 2.900390625 -2.32421875 4.736328125 l0.058594 0.14648 l-0.0097656 0.23438 q0.0390625 0 0.0390625 0.0390625 z M85.52736875 26.0254 l-0.29297 -0.078125 q0 0.0390625 -0.029296875 0.0390625 q-0.05859375 -0.1171875 -0.17578125 -0.13671875 l0.0097656 0.078125 l-0.078125 0.0097656 q-0.390625 -0.5078125 -0.390625 -0.625 q0 -0.458984375 0.0390625 -1.259765625 l0.087891 0.029297 l-0.078125 -0.26367 q0 -0.0390625 0.0390625 -0.048828125 l0.0097656 0.078125 l0.039063 0 q-0.068359375 -0.1953125 -0.078125 -0.2734375 l0.078125 -0.0097656 q0 -0.0390625 -0.078125 -0.302734375 l0.039063 0 l0.0097656 0.078125 l0.039063 -0.0097656 q-0.009765625 -0.068359375 -0.009765625 -0.234375 l0.0097656 -0.42969 q-0.048828125 -0.078125 -0.05859375 -0.1171875 q0.078125 -0.009765625 0.078125 -0.048828125 q-0.009765625 -0.13671875 -0.009765625 -0.33203125 q0 -1.1328125 0.44921875 -4.052734375 l0.078125 0.029297 l-0.0097656 -0.11719 q0 -0.546875 0.478515625 -1.865234375 l-0.039063 0 l0.30273 -1.0547 q-0.048828125 -0.068359375 -0.05859375 -0.1171875 q0.068359375 -0.009765625 0.068359375 -0.126953125 l-0.039063 0.0097656 q-0.771484375 1.38671875 -1.89453125 2.83203125 q-1.73828125 2.1484375 -2.67578125 2.255859375 q0 -0.029296875 -0.0390625 -0.029296875 l0 0.039063 q-0.576171875 0 -1.171875 -0.29296875 q-0.771484375 -0.80078125 -0.830078125 -1.26953125 l0.039063 -0.0097656 l-0.048828 -0.068359 q-0.01953125 -0.146484375 -0.01953125 -0.29296875 q0 -0.615234375 0.33203125 -1.2890625 q0 -0.146484375 0.556640625 -1.240234375 q0.634765625 -1.455078125 1.962890625 -3.232421875 q0.52734375 -0.78125 0.7763671875 -0.810546875 t0.24902 -0.10742 l0.20508 0.0097656 l0.14648 -0.0097656 l0.078125 -0.048828 q0.009765625 0.09765625 0.33203125 0.107421875 q0.068359375 -0.0390625 0.146484375 -0.048828125 q0.400390625 0 0.859375 0.556640625 q0.078125 0.1171875 0.15625 0.33203125 l-0.029297 0.087891 l0.048828 0.068359 q-0.01953125 0.2734375 -0.01953125 0.517578125 q0.068359375 -0.048828125 0.15625 -0.05859375 q-0.05859375 0.166015625 -0.05859375 0.205078125 l0.039063 -0.0097656 q0.05859375 -0.17578125 0.05859375 -0.1953125 l0.039063 -0.0097656 l0.0097656 0.078125 l0.039063 -0.0097656 q0 -0.244140625 0.224609375 -0.380859375 l-0.048828 -0.068359 l0 -0.039063 q0.068359375 -0.009765625 0.068359375 -0.087890625 l0.078125 0.029297 q0 -0.1953125 0.05859375 -0.205078125 q0 0.0390625 0.0390625 0.0390625 l0 -0.039063 q-0.0390625 0 -0.048828125 -0.0390625 q0.13671875 -0.05859375 0.13671875 -0.17578125 l0.039063 0 l0.0097656 0.078125 l0.039063 -0.0097656 l-0.0097656 -0.15625 l0.0097656 -0.15625 l0.039063 0 l0.0097656 0.10742 l0.039063 0 q0 -0.087890625 0.224609375 -0.46875 q0 -0.05859375 0.05859375 -0.15625 q-0.0390625 0 -0.048828125 -0.0390625 q0.166015625 -0.01953125 0.205078125 -0.25390625 l0.087891 0.029297 q0.048828125 -0.21484375 0.048828125 -0.244140625 l0.078125 0.029297 q0 -0.1171875 0.126953125 -0.21484375 q-0.048828125 -0.068359375 -0.05859375 -0.146484375 l0.039063 -0.0097656 l0.087891 0.029297 q0.244140625 -0.576171875 0.322265625 -0.5859375 q0.0390625 -0.009765625 0.09765625 -0.17578125 q-0.048828125 -0.068359375 -0.05859375 -0.107421875 l0.087891 0.029297 q0 -0.0390625 0.029296875 -0.048828125 q0.009765625 0.0390625 0.048828125 0.0390625 q0 -0.087890625 0.078125 -0.244140625 l0 -0.039063 l0.078125 0.029297 q0 -0.1953125 0.05859375 -0.205078125 q0 0.029296875 0.0390625 0.029296875 l0.019531 -0.13672 q0 -0.01953125 -0.01953125 -0.01953125 t-0.019531 -0.039063 q0.09765625 -0.009765625 0.09765625 -0.166015625 l0.078125 0.029297 q0 -0.09765625 0.185546875 -0.13671875 q0 -0.09765625 0.087890625 -0.25390625 l-0.0097656 -0.078125 q0.05859375 0.029296875 0.1171875 0.029296875 q0 -0.166015625 0.283203125 -0.546875 q0.009765625 0.029296875 0.048828125 0.029296875 l-0.019531 -0.11719 q0.0390625 0 0.048828125 0.0390625 q0.05859375 -0.009765625 0.13671875 -0.17578125 q0.185546875 -0.01953125 0.234375 -0.341796875 q0.068359375 -0.048828125 0.107421875 -0.05859375 q0 0.029296875 0.029296875 0.029296875 l0.0097656 0 q0 -0.126953125 0.302734375 -0.458984375 l-0.0097656 -0.078125 l0.12695 0.058594 q0 -0.126953125 0.400390625 -0.517578125 q0 -0.068359375 0.52734375 -0.576171875 q0.185546875 -0.380859375 0.263671875 -0.390625 q0.15625 -0.25390625 0.390625 -0.361328125 q0.009765625 0.107421875 0.087890625 0.107421875 l0 -0.039063 q0.029296875 0 0.244140625 0.126953125 l0 -0.039063 l0.37109 0.14648 q0.166015625 0.263671875 0.400390625 0.390625 l-0.029297 0.078125 l0.10742 0.18555 q-0.078125 0.419921875 -0.64453125 1.181640625 q0 0.087890625 -0.9765625 1.62109375 q-0.6640625 1.162109375 -1.69921875 3.4765625 q-0.5078125 1.19140625 -0.908203125 2.236328125 l0.048828 0.068359 q-0.146484375 0.01953125 -0.673828125 1.81640625 q-0.5859375 1.611328125 -1.103515625 5.09765625 q-0.13671875 0.810546875 -0.15625 3.525390625 q-0.068359375 0.17578125 -0.126953125 0.52734375 q-0.1171875 0.341796875 -0.546875 0.654296875 z M95.195334375 9.375 q0.166015625 0 0.3125 0.078125 q0 -0.0390625 0.0390625 -0.0390625 q0 0.068359375 0.1953125 0.1171875 l0 -0.039063 l0.58594 0.15625 q0.13671875 0.15625 0.2734375 0.15625 q0.15625 0.439453125 0.15625 0.546875 l0 0.039063 q0 0.498046875 -0.78125 1.953125 l-0.078125 -0.039063 q-0.712890625 1.2890625 -1.3671875 2.1484375 q-1.162109375 1.2890625 -1.640625 1.2890625 q-0.0390625 0 -0.46875 -0.1171875 l-0.11719 0 q0 -0.09765625 -0.3515625 -0.3125 l-0.23438 -0.35156 l0 -0.078125 l0.15625 0.039063 q0.615234375 0 1.171875 -0.703125 q0.4296875 -0.29296875 0.9765625 -0.9765625 l0.039063 0 l-0.039063 -0.078125 q0.56640625 -0.703125 1.09375 -1.8359375 l0.078125 0 l-0.039063 0.078125 l0.039063 0 l0.11719 -0.19531 l-0.039063 0 q0 0.078125 -0.078125 0.078125 l0 -0.078125 q0.3515625 -0.634765625 0.3515625 -0.7421875 q-0.576171875 0.09765625 -1.640625 1.2109375 q-0.703125 0.60546875 -0.703125 0.859375 q-1.42578125 1.708984375 -2.265625 3.75 q-0.2734375 0.83984375 -0.2734375 1.4453125 q0.1171875 0.9375 0.6640625 0.9375 q0 0.0390625 0.0390625 0.0390625 l0.3125 0 l0.078125 -0.039063 l0 0.039063 q0.60546875 0 2.109375 -1.484375 q0.48828125 -0.46875 0.703125 -0.46875 l0.039063 0 q0 0.078125 0.1953125 0.1953125 l0.039063 0.078125 q-0.078125 0.009765625 -0.078125 0.078125 q0.009765625 0.078125 0.078125 0.078125 q0 -0.0390625 0.0390625 -0.0390625 l0.039063 0.27344 l0 0.078125 l-0.078125 0.11719 l0.039063 0 q-0.0390625 0.048828125 -0.0390625 0.234375 l0.039063 0 q-0.078125 0.15625 -0.1171875 0.15625 l0.039063 0.078125 q-0.498046875 0.927734375 -0.703125 1.1328125 q-0.869140625 0.7421875 -1.40625 0.7421875 q0 0.0390625 -0.2734375 0.0390625 l-0.39063 0 q-0.0390625 0 -0.0390625 -0.0390625 q-0.0390625 0 -0.0390625 0.0390625 q-0.6640625 -0.087890625 -1.5234375 -0.6640625 q-0.46875 -0.380859375 -0.859375 -0.9375 q-0.4296875 -0.927734375 -0.4296875 -1.25 l0 -0.46875 q0.068359375 -0.947265625 0.78125 -2.1484375 q0.29296875 -0.673828125 1.6015625 -2.3828125 q1.396484375 -1.5625 2.0703125 -1.9921875 q0.46875 -0.302734375 0.46875 -0.390625 l0.078125 0.039063 q0 -0.15625 0.6640625 -0.4296875 l0.39063 0 z M108.076 10.3711 l0.11719 0 l0 0.078125 l-0.11719 0 l0 -0.078125 z M108.389 10.4102 q0.9375 0.205078125 0.9375 0.3515625 q0 0.0390625 0.0390625 0.0390625 l0 -0.039063 q0.263671875 0 0.4296875 0.7421875 q-0.0390625 0.1171875 -0.078125 0.1171875 l0.039063 0.078125 q-0.25390625 0.60546875 -1.7578125 3.28125 q-0.029296875 0.087890625 -0.3515625 0.5859375 q0 0.0390625 0.0390625 0.0390625 q-0.1953125 0.361328125 -0.1953125 0.4296875 l-0.078125 -0.039063 l0.039063 0.078125 q-0.83984375 1.6796875 -1.171875 2.578125 q-0.302734375 0.302734375 -0.625 1.640625 q-0.0390625 0 -0.0390625 0.0390625 t0.039063 0.039063 q-0.234375 0.732421875 -0.234375 1.328125 l-0.039063 0 l0 -0.15625 l-0.039063 0 q-0.068359375 0.3515625 -0.15625 0.3515625 q0 -0.0390625 -0.0390625 -0.0390625 q0 0.234375 -0.1953125 0.234375 q0 -0.0390625 -0.0390625 -0.0390625 q-0.029296875 0.1171875 -0.15625 0.15625 q0 -0.078125 -0.1171875 -0.078125 l-0.11719 0 q-0.1171875 -0.2734375 -0.3125 -1.09375 q0.0390625 -0.068359375 0.0390625 -0.15625 l-0.078125 -0.039063 l0.039063 -0.078125 l0 -0.078125 l-0.078125 0 l0 -0.078125 q0 -0.166015625 -0.0390625 -0.4296875 l0.039063 -0.078125 q-0.0390625 -0.068359375 -0.0390625 -0.15625 l0.039063 -0.078125 l-0.039063 0 q0.078125 -0.1171875 0.1171875 -0.4296875 q-0.0390625 -0.068359375 -0.0390625 -0.15625 l0.078125 0 l0 -0.039063 l-0.078125 -0.11719 l0.078125 -0.039063 q0 0.0390625 0.0390625 0.0390625 l0.078125 -0.39063 q-0.0390625 0 -0.0390625 -0.0390625 q0.087890625 0 0.1171875 -0.15625 l-0.039063 -0.078125 l0 -0.15625 q0.1171875 0 0.1953125 -0.2734375 q-0.0390625 0 -0.0390625 -0.0390625 q0.09765625 -0.1171875 0.15625 -0.1171875 l-0.039063 -0.078125 q0.1953125 -0.25390625 0.1953125 -0.3515625 l-0.078125 0.039063 l0 -0.039063 q0 -0.09765625 0.15625 -0.1171875 l0 -0.078125 l-0.078125 0 l0 -0.039063 q0.05859375 -0.068359375 0.3125 -0.46875 l-0.078125 0 q0.0390625 -0.068359375 0.0390625 -0.15625 l0.039063 0 l0 0.078125 l0.039063 0 q0 -0.2734375 0.3125 -0.703125 l0.039063 0 l-0.039063 -0.078125 q0.1171875 0 0.1171875 -0.2734375 l0.078125 0.039063 l0.039063 -0.23438 q-0.0390625 0 -0.0390625 -0.0390625 q0.15625 0 0.15625 -0.3125 l0.078125 0.039063 l0 -0.078125 l-0.078125 0 l0 -0.078125 l0.078125 0.039063 q0 -0.09765625 0.1953125 -0.3515625 l0.078125 -0.15625 l-0.039063 0 l-0.039063 0.078125 l-0.078125 -0.039063 l-0.039063 0 q-0.146484375 0.068359375 -0.1953125 0.234375 q0.0390625 0 0.0390625 0.0390625 l-0.35156 0.42969 q-0.791015625 1.025390625 -1.9921875 2.2265625 q-0.068359375 0 -0.7421875 0.5859375 q-0.72265625 0.3515625 -0.859375 0.3515625 l-0.3125 -0.15625 l-0.078125 0.039063 l-0.039063 0 q-0.8203125 -0.654296875 -0.8203125 -1.1328125 q-0.15625 -0.2734375 -0.15625 -0.390625 l0 -0.3125 q0 -0.1953125 0.1171875 -0.625 q-0.087890625 0 -0.2734375 0.2734375 l-0.97656 1.0156 q-0.5078125 0.537109375 -1.015625 1.2109375 q-0.95703125 0.9765625 -1.25 0.9765625 q0 0.048828125 -0.234375 0.1171875 q-0.751953125 -0.185546875 -0.9375 -0.5078125 q-0.390625 -0.595703125 -0.390625 -0.9765625 q0 -0.625 1.0546875 -3.28125 q0.234375 -0.498046875 0.3125 -0.78125 q0.05859375 0 0.2734375 -0.1171875 l0 0.039063 l0.078125 -0.039063 q0.078125 0.009765625 0.078125 0.078125 l0.078125 -0.039063 l0.078125 0 q0.8203125 0.166015625 0.8203125 0.78125 l-0.23438 0.97656 q0.0390625 0 0.0390625 0.0390625 q-0.078125 0.009765625 -0.078125 0.078125 l0.039063 0.078125 q-0.1171875 0.0390625 -0.1171875 0.234375 l0 0.039063 l0.078125 -0.039063 q0 0.0390625 0.0390625 0.0390625 q0.615234375 -0.703125 0.703125 -0.7421875 l0 0.078125 q1.123046875 -0.99609375 1.40625 -1.3671875 q0.6640625 -0.52734375 2.03125 -1.8359375 q0.2734375 -0.15625 0.2734375 -0.3125 l0.078125 0.039063 l0.35156 0 l0.078125 0.039063 l0 -0.039063 q0.2734375 0.068359375 0.2734375 0.1171875 l0.078125 -0.039063 l0.50781 0.23438 q0.166015625 0.146484375 0.3125 0.546875 q0 0.46875 -0.7421875 1.875 q-0.234375 0.5859375 -0.3125 0.5859375 l0 0.078125 l0.039063 0 q0.0390625 0 0.6640625 -0.703125 q0.78125 -0.8984375 1.171875 -1.2890625 q0 0.0390625 0.0390625 0.0390625 l0 -0.11719 l0.078125 0.039063 l0 -0.039063 q-0.0390625 0 -0.0390625 -0.0390625 q0.107421875 0 0.3515625 -0.3125 q0 0.0390625 0.0390625 0.0390625 l0.039063 -0.19531 l0.078125 0.039063 q0.1953125 -0.1953125 0.1953125 -0.3125 l0.078125 0.039063 l0.23438 -0.3125 l0.078125 0.039063 l0 -0.039063 q-0.0390625 0 -0.0390625 -0.0390625 l0.078125 -0.039063 q0 0.0390625 0.0390625 0.0390625 q0.17578125 -0.283203125 0.3515625 -0.3515625 q0.15625 -0.1171875 0.15625 -0.15625 q-0.0390625 0 -0.0390625 -0.0390625 q0.25390625 -0.1953125 0.390625 -0.1953125 l-0.039063 -0.078125 l0 -0.039063 q0.01953125 0 0.15625 -0.0390625 q0 0.0390625 0.0390625 0.0390625 l0 -0.039063 q-0.0390625 0 -0.0390625 -0.0390625 q0.2734375 -0.078125 0.390625 -0.2734375 q0.654296875 -0.46875 0.7421875 -0.46875 z M111.308553125 13.3203 l0 0.039063 l-0.039063 0.078125 l0.039063 0 l0.11719 -0.15625 l0 -0.039063 z M110.019533125 14.9219 q0 0.0390625 -0.0390625 0.1171875 l0.039063 0 l0.039063 -0.078125 l0 -0.039063 l-0.039063 0 z M110.566403125 14.2187 l-0.078125 0.11719 l0.039063 0 l0.078125 -0.11719 l-0.039063 0 z M111.191453125 13.476600000000001 l-0.19531 0.23438 l0 0.039063 q0.068359375 0 0.234375 -0.2734375 l-0.039063 0 z M110.371093125 17.2266 q0.68359375 -0.458984375 1.2109375 -1.1328125 l1.2891 -1.3672 q1.259765625 -1.357421875 1.4453125 -1.3671875 q0 -0.087890625 0.78125 -0.7421875 q0.0390625 -0.21484375 0.0390625 -0.3515625 l0 -0.11719 l-0.11719 0 l-0.078125 0.039063 l0 -0.039063 q-0.6640625 0.17578125 -0.6640625 0.390625 q-0.224609375 0 -1.09375 0.78125 q-1.2890625 1.23046875 -1.9921875 2.1875 q-0.8203125 1.279296875 -0.8203125 1.71875 z M110.683593125 14.023399999999999 l0 0.078125 q0.05859375 0 0.15625 -0.15625 l0 -0.039063 z M111.308553125 13.3203 l0 -0.039063 q0.2734375 -0.3125 0.3125 -0.3125 l0 0.078125 l0.078125 -0.039063 l-0.039063 -0.078125 q0 -0.05859375 0.1171875 -0.1171875 l0 0.039063 l-0.039063 0.078125 l0.078125 0 q0 -0.068359375 0.4296875 -0.46875 l-0.039063 0 q0.0390625 -0.078125 0.0390625 -0.1171875 l0.039063 0 l0 0.078125 l0.039063 0 q0 -0.263671875 0.3515625 -0.3515625 l0.11719 -0.15625 l-0.039063 0 q0 0.05859375 -0.1171875 0.1171875 l-0.039063 0 l0.23438 -0.27344 q-0.0390625 0 -0.0390625 -0.0390625 q0.1171875 0 0.1171875 -0.078125 l0.039063 0 l0.078125 0.039063 l0 -0.11719 l0.039063 0 l0 0.078125 l0.039063 0 l0 -0.11719 l0.039063 0 q0 0.0390625 0.0390625 0.1171875 q0.078125 -0.0390625 0.1171875 -0.0390625 l-0.039063 -0.078125 q0.4296875 -0.166015625 0.4296875 -0.234375 l0 -0.039063 q0.9375 -0.05859375 0.9375 -0.1171875 l0.078125 0.039063 l0.23438 0 l0.078125 -0.039063 l0 0.039063 l0.078125 -0.039063 l0.23438 0 q0.478515625 0 1.09375 0.78125 l0.039063 0 l0.19531 -0.039063 l0 0.039063 l-0.039063 0.078125 l0.078125 0 q0.0390625 0 0.0390625 -0.0390625 q0.3515625 0.05859375 0.703125 0.5859375 l0 0.11719 q-0.146484375 0.576171875 -1.4453125 2.96875 q-1.1328125 2.40234375 -1.1328125 3.90625 l0 0.23438 q0 0.2734375 0.1171875 0.5859375 q-0.0390625 0.078125 -0.0390625 0.1171875 q0 0.068359375 0.078125 0.234375 q-0.05859375 0 -0.3125 0.234375 l-0.039063 0 q-0.0390625 0 -0.0390625 -0.0390625 l-0.078125 0.039063 q-0.126953125 -0.078125 -0.1953125 -0.078125 q0 0.0390625 -0.0390625 0.0390625 q-0.6640625 -0.60546875 -0.8203125 -1.3671875 l0 -0.078125 l0.039063 -0.078125 l-0.039063 -0.23438 l0 -0.078125 l-0.078125 0 l0.039063 -0.078125 l0 -0.19531 q0 -0.91796875 0.234375 -1.484375 l-0.039063 -0.078125 q0.3125 -1.0546875 0.46875 -1.2890625 l-0.039063 -0.078125 q0 -0.1171875 0.1953125 -0.5078125 l-0.039063 0 q-0.576171875 0.52734375 -2.34375 2.5390625 q-0.966796875 0.99609375 -1.3671875 1.0546875 q-0.78125 0 -1.171875 -0.78125 q-0.1953125 -0.1171875 -0.3125 -0.9375 l0 -0.039063 q0.146484375 -0.625 0.1953125 -0.625 l0 -0.039063 l-0.039063 0 q0.361328125 -1.162109375 0.9765625 -1.8359375 l0 0.039063 l-0.078125 0.11719 l0.039063 0 l0.23438 -0.3125 l-0.078125 0.039063 l-0.039063 0 l0 -0.039063 q0.234375 -0.37109375 0.4296875 -0.5078125 l0 -0.039063 q0.13671875 -0.224609375 0.625 -0.6640625 z M109.121093125 16.1328 l0.11719 0 l0 0.078125 l-0.078125 -0.039063 l0 0.078125 l-0.039063 0 l0 -0.11719 z M109.472653125 15.585899999999999 l0 0.039063 q-0.05859375 0.15625 -0.1171875 0.15625 l0 -0.039063 q0.05859375 -0.15625 0.1171875 -0.15625 z M109.550783125 15.4297 l0 0.11719 l-0.078125 0 l0 -0.039063 q0.009765625 -0.078125 0.078125 -0.078125 z M109.785156125 15.039100000000001 l0 0.039063 q0 0.078125 -0.078125 0.078125 l0 -0.039063 q0.009765625 -0.078125 0.078125 -0.078125 z M109.980473125 14.7656 l0 0.039063 q0 0.05859375 -0.1171875 0.1171875 l0 -0.039063 q0 -0.05859375 0.1171875 -0.1171875 z M110.253903125 14.5703 l0 0.11719 l-0.078125 0 l0 -0.039063 q0.009765625 -0.078125 0.078125 -0.078125 z M110.175783125 14.4922 l0 0.039063 q0 0.05859375 -0.1171875 0.1171875 l0 -0.039063 q0 -0.05859375 0.1171875 -0.1171875 z M110.371093125 14.2187 l0 0.039063 q-0.048828125 0.15625 -0.1953125 0.234375 l0 -0.039063 q0.146484375 -0.234375 0.1953125 -0.234375 z M110.527343125 14.023399999999999 l0 0.039063 q-0.078125 0.09765625 -0.078125 0.15625 l-0.078125 0 q0.078125 -0.17578125 0.15625 -0.1953125 z M111.347653125 13.125 l0 0.039063 q-0.5859375 0.6640625 -0.625 0.6640625 l0 -0.039063 q0.517578125 -0.6640625 0.625 -0.6640625 z M111.972653125 12.6172 l0.039063 0 q0 0.05859375 -0.1171875 0.1171875 l0 -0.039063 q0.009765625 -0.078125 0.078125 -0.078125 z M112.128953125 12.3047 l0.039063 0 l0 0.078125 q-0.107421875 0 -0.546875 0.5078125 l-0.15625 0.11719 l0 -0.039063 q0.60546875 -0.6640625 0.6640625 -0.6640625 z M112.480453125 11.9141 l0.039063 0 l0 0.11719 l-0.15625 0.11719 l0 -0.039063 q0.1171875 -0.126953125 0.1171875 -0.1953125 z M124.257821875 11.0645 l0.15625 0 q0.078125 0.087890625 0.625 0.3125 q0 0.068359375 0.3125 0.3125 q0.3125 0.25390625 0.3125 0.4296875 l0 0.19531 q0 0.56640625 -1.5234375 2.6953125 q-1.220703125 1.650390625 -2.7734375 4.2578125 q-0.3515625 0.751953125 -0.3515625 1.25 q0.009765625 0.09765625 0.1953125 0.15625 q0.048828125 0 0.546875 -0.15625 q0 0.0390625 0.0390625 0.0390625 l0.039063 -0.078125 l0.078125 0.039063 l1.1328 -0.50781 l0 -0.039063 l0.039063 0 q0.0390625 0 0.0390625 0.0390625 l0.82031 -0.39063 q0.234375 -0.05859375 0.234375 -0.15625 l0.078125 0.039063 q0.2734375 -0.224609375 0.9375 -0.46875 q0 -0.048828125 0.0390625 -0.1171875 l0.078125 0.039063 q0.8203125 -0.546875 0.8984375 -0.546875 q0 -0.05859375 0.546875 -0.3125 q0.009765625 -0.078125 0.078125 -0.078125 l0.039063 0 l0 0.078125 l0.039063 0 l0 -0.11719 l0.078125 0 l0 0.078125 l0.078125 -0.039063 l0 0.078125 q-0.05859375 0 -0.15625 0.15625 l0.039063 0.078125 l0 0.039063 q-0.1171875 0 -0.1953125 0.3515625 q0.0390625 0 0.0390625 0.0390625 q-0.146484375 0 -0.4296875 0.46875 l-0.039063 0 l0.039063 0.078125 q-0.068359375 0.126953125 -0.7421875 0.625 q0 0.0390625 0.0390625 0.0390625 q-0.107421875 0.224609375 -0.8203125 0.5859375 q-0.166015625 0.17578125 -1.484375 0.859375 l0 -0.039063 q-0.41015625 0.283203125 -1.09375 0.46875 q-0.546875 0.048828125 -0.546875 0.1171875 q-0.7421875 -0.078125 -1.2109375 -0.3125 q-0.654296875 -0.517578125 -0.8984375 -1.640625 q-0.078125 -0.380859375 -0.078125 -0.5859375 q0.05859375 -0.3515625 0.1171875 -0.3515625 l-0.039063 -0.078125 l0 -0.039063 q0.44921875 -1.171875 0.8984375 -1.6796875 q0.791015625 -1.38671875 1.484375 -2.3046875 l1.1328 -1.7578 l0 -0.039063 l-0.039063 0 q-1.142578125 0.56640625 -2.6953125 1.9921875 q-1.38671875 1.376953125 -2.5390625 2.8125 q-0.810546875 0.9375 -0.9375 0.9375 l-0.039063 0 l0 -0.039063 q-0.0390625 0 -0.0390625 0.0390625 l-0.19531 -0.039063 l-0.039063 0 l-0.078125 0.039063 l0 -0.078125 l-0.078125 0 l-0.078125 0.039063 q-0.537109375 -0.48828125 -0.5859375 -0.7421875 l-0.039063 0 q0 -0.0390625 0.0390625 -0.0390625 l-0.039063 -0.39063 q0 -0.439453125 0.390625 -1.484375 q0.146484375 -0.146484375 0.5078125 -0.859375 q0.966796875 -1.630859375 1.328125 -2.1484375 q0.46875 -0.673828125 0.46875 -0.8203125 l0.078125 0 l0.078125 0.039063 q0.009765625 -0.078125 0.078125 -0.078125 q0.146484375 0.048828125 0.3515625 0.1953125 l0.11719 0 q0.546875 0.33203125 0.546875 0.9765625 q0.1953125 -0.1171875 0.3125 -0.1171875 l-0.039063 -0.078125 q0.205078125 -0.0390625 0.5078125 -0.390625 q0.390625 -0.166015625 0.390625 -0.3125 l0.078125 0.039063 q0.869140625 -0.673828125 2.34375 -1.328125 q0.56640625 -0.2734375 0.9765625 -0.2734375 z M127.48047125 18.75 q0.4296875 -0.263671875 0.4296875 -0.33203125 l0.039063 0 q0.009765625 0.029296875 0.048828125 0.029296875 q0 -0.078125 0.25390625 -0.185546875 q-0.0390625 -0.05859375 -0.05859375 -0.1171875 l0.087891 0.029297 q0.0390625 -0.15625 0.205078125 -0.21484375 l0.0097656 0.068359 l0.039063 0 l-0.0097656 -0.078125 q-0.0390625 0 -0.0390625 -0.029296875 l0.10742 -0.097656 q0.01953125 0.068359375 0.078125 0.068359375 q0 -0.078125 0.107421875 -0.087890625 l-0.058594 -0.19531 q0.05859375 0 0.1171875 0.029296875 q0 -0.087890625 0.087890625 -0.244140625 q0 -0.0390625 0.0390625 -0.048828125 q0.078125 0 0.087890625 0.068359375 q-0.09765625 0.009765625 -0.17578125 0.21484375 l0.039063 0 q0.380859375 -0.478515625 0.44921875 -0.48828125 l0 -0.078125 l-0.078125 0.0097656 l0.0097656 0.078125 q-0.068359375 0 -0.09765625 -0.107421875 q0.17578125 -0.029296875 0.17578125 -0.17578125 q0.078125 0 0.087890625 0.05859375 q-0.068359375 0.029296875 -0.068359375 0.087890625 l0.17578 -0.13672 l-0.048828 -0.068359 q0.009765625 -0.087890625 0.068359375 -0.087890625 l-0.048828 -0.078125 l0 -0.039063 l0.15625 -0.019531 l0.0097656 0.078125 q0.05859375 -0.009765625 0.13671875 -0.17578125 l-0.039063 0.0097656 q0 0.078125 -0.068359375 0.078125 q-0.0390625 0 -0.0390625 -0.029296875 q0 -0.1953125 0.087890625 -0.205078125 q0 0.05859375 -0.029296875 0.1171875 l0.039063 0 q0 -0.078125 0.068359375 -0.087890625 l0.0097656 0.078125 l0.21484 -0.22461 q0 0.0390625 0.0390625 0.0390625 q0 -0.185546875 0.185546875 -0.380859375 q0 -0.0390625 -0.0390625 -0.0390625 l-0.0097656 -0.11719 q0 -0.15625 0.087890625 -0.166015625 l-0.048828 -0.43945 q0 -0.01953125 0.029296875 -0.029296875 q0 -0.029296875 -0.0390625 -0.029296875 q0.01953125 -0.8203125 0.146484375 -1.357421875 l-0.048828 -0.078125 q0.107421875 -0.205078125 0.107421875 -0.400390625 q0.068359375 -0.009765625 0.068359375 -0.0390625 q-0.048828125 -0.146484375 -0.048828125 -0.166015625 q0.048828125 -0.1171875 0.048828125 -0.244140625 q-0.0390625 0 -0.048828125 -0.029296875 q0.0390625 -0.009765625 0.0390625 -0.048828125 q-0.0390625 0.009765625 -0.390625 0.37109375 q-0.009765625 -0.0390625 -0.048828125 -0.0390625 q0 0.078125 -0.400390625 0.56640625 q-1.9921875 2.900390625 -2.32421875 4.736328125 l0.058594 0.14648 l-0.0097656 0.23438 q0.0390625 0 0.0390625 0.0390625 z M132.28518125 26.0254 l-0.29297 -0.078125 q0 0.0390625 -0.029296875 0.0390625 q-0.05859375 -0.1171875 -0.17578125 -0.13671875 l0.0097656 0.078125 l-0.078125 0.0097656 q-0.390625 -0.5078125 -0.390625 -0.625 q0 -0.458984375 0.0390625 -1.259765625 l0.087891 0.029297 l-0.078125 -0.26367 q0 -0.0390625 0.0390625 -0.048828125 l0.0097656 0.078125 l0.039063 0 q-0.068359375 -0.1953125 -0.078125 -0.2734375 l0.078125 -0.0097656 q0 -0.0390625 -0.078125 -0.302734375 l0.039063 0 l0.0097656 0.078125 l0.039063 -0.0097656 q-0.009765625 -0.068359375 -0.009765625 -0.234375 l0.0097656 -0.42969 q-0.048828125 -0.078125 -0.05859375 -0.1171875 q0.078125 -0.009765625 0.078125 -0.048828125 q-0.009765625 -0.13671875 -0.009765625 -0.33203125 q0 -1.1328125 0.44921875 -4.052734375 l0.078125 0.029297 l-0.0097656 -0.11719 q0 -0.546875 0.478515625 -1.865234375 l-0.039063 0 l0.30273 -1.0547 q-0.048828125 -0.068359375 -0.05859375 -0.1171875 q0.068359375 -0.009765625 0.068359375 -0.126953125 l-0.039063 0.0097656 q-0.771484375 1.38671875 -1.89453125 2.83203125 q-1.73828125 2.1484375 -2.67578125 2.255859375 q0 -0.029296875 -0.0390625 -0.029296875 l0 0.039063 q-0.576171875 0 -1.171875 -0.29296875 q-0.771484375 -0.80078125 -0.830078125 -1.26953125 l0.039063 -0.0097656 l-0.048828 -0.068359 q-0.01953125 -0.146484375 -0.01953125 -0.29296875 q0 -0.615234375 0.33203125 -1.2890625 q0 -0.146484375 0.556640625 -1.240234375 q0.634765625 -1.455078125 1.962890625 -3.232421875 q0.52734375 -0.78125 0.7763671875 -0.810546875 t0.24902 -0.10742 l0.20508 0.0097656 l0.14648 -0.0097656 l0.078125 -0.048828 q0.009765625 0.09765625 0.33203125 0.107421875 q0.068359375 -0.0390625 0.146484375 -0.048828125 q0.400390625 0 0.859375 0.556640625 q0.078125 0.1171875 0.15625 0.33203125 l-0.029297 0.087891 l0.048828 0.068359 q-0.01953125 0.2734375 -0.01953125 0.517578125 q0.068359375 -0.048828125 0.15625 -0.05859375 q-0.05859375 0.166015625 -0.05859375 0.205078125 l0.039063 -0.0097656 q0.05859375 -0.17578125 0.05859375 -0.1953125 l0.039063 -0.0097656 l0.0097656 0.078125 l0.039063 -0.0097656 q0 -0.244140625 0.224609375 -0.380859375 l-0.048828 -0.068359 l0 -0.039063 q0.068359375 -0.009765625 0.068359375 -0.087890625 l0.078125 0.029297 q0 -0.1953125 0.05859375 -0.205078125 q0 0.0390625 0.0390625 0.0390625 l0 -0.039063 q-0.0390625 0 -0.048828125 -0.0390625 q0.13671875 -0.05859375 0.13671875 -0.17578125 l0.039063 0 l0.0097656 0.078125 l0.039063 -0.0097656 l-0.0097656 -0.15625 l0.0097656 -0.15625 l0.039063 0 l0.0097656 0.10742 l0.039063 0 q0 -0.087890625 0.224609375 -0.46875 q0 -0.05859375 0.05859375 -0.15625 q-0.0390625 0 -0.048828125 -0.0390625 q0.166015625 -0.01953125 0.205078125 -0.25390625 l0.087891 0.029297 q0.048828125 -0.21484375 0.048828125 -0.244140625 l0.078125 0.029297 q0 -0.1171875 0.126953125 -0.21484375 q-0.048828125 -0.068359375 -0.05859375 -0.146484375 l0.039063 -0.0097656 l0.087891 0.029297 q0.244140625 -0.576171875 0.322265625 -0.5859375 q0.0390625 -0.009765625 0.09765625 -0.17578125 q-0.048828125 -0.068359375 -0.05859375 -0.107421875 l0.087891 0.029297 q0 -0.0390625 0.029296875 -0.048828125 q0.009765625 0.0390625 0.048828125 0.0390625 q0 -0.087890625 0.078125 -0.244140625 l0 -0.039063 l0.078125 0.029297 q0 -0.1953125 0.05859375 -0.205078125 q0 0.029296875 0.0390625 0.029296875 l0.019531 -0.13672 q0 -0.01953125 -0.01953125 -0.01953125 t-0.019531 -0.039063 q0.09765625 -0.009765625 0.09765625 -0.166015625 l0.078125 0.029297 q0 -0.09765625 0.185546875 -0.13671875 q0 -0.09765625 0.087890625 -0.25390625 l-0.0097656 -0.078125 q0.05859375 0.029296875 0.1171875 0.029296875 q0 -0.166015625 0.283203125 -0.546875 q0.009765625 0.029296875 0.048828125 0.029296875 l-0.019531 -0.11719 q0.0390625 0 0.048828125 0.0390625 q0.05859375 -0.009765625 0.13671875 -0.17578125 q0.185546875 -0.01953125 0.234375 -0.341796875 q0.068359375 -0.048828125 0.107421875 -0.05859375 q0 0.029296875 0.029296875 0.029296875 l0.0097656 0 q0 -0.126953125 0.302734375 -0.458984375 l-0.0097656 -0.078125 l0.12695 0.058594 q0 -0.126953125 0.400390625 -0.517578125 q0 -0.068359375 0.52734375 -0.576171875 q0.185546875 -0.380859375 0.263671875 -0.390625 q0.15625 -0.25390625 0.390625 -0.361328125 q0.009765625 0.107421875 0.087890625 0.107421875 l0 -0.039063 q0.029296875 0 0.244140625 0.126953125 l0 -0.039063 l0.37109 0.14648 q0.166015625 0.263671875 0.400390625 0.390625 l-0.029297 0.078125 l0.10742 0.18555 q-0.078125 0.419921875 -0.64453125 1.181640625 q0 0.087890625 -0.9765625 1.62109375 q-0.6640625 1.162109375 -1.69921875 3.4765625 q-0.5078125 1.19140625 -0.908203125 2.236328125 l0.048828 0.068359 q-0.146484375 0.01953125 -0.673828125 1.81640625 q-0.5859375 1.611328125 -1.103515625 5.09765625 q-0.13671875 0.810546875 -0.15625 3.525390625 q-0.068359375 0.17578125 -0.126953125 0.52734375 q-0.1171875 0.341796875 -0.546875 0.654296875 z"></path></g>
			</g>
		</svg>
	